<svg version="1.1" id="Layer_1" xmlns="http://www.w3.org/2000/svg" xmlns:xlink="http://www.w3.org/1999/xlink" x="0px" y="0px"
	 width="100%" viewBox="0 0 324 172" enable-background="new 0 0 324 172" xml:space="preserve">
<path fill="#FDFDFD" opacity="1.000000" stroke="none" 
	d="
M201.000000,173.000000 
	C134.000015,173.000000 67.500015,173.000000 1.000018,173.000000 
	C1.000012,115.666679 1.000012,58.333363 1.000006,1.000033 
	C108.999969,1.000022 216.999939,1.000022 324.999939,1.000011 
	C324.999939,58.333298 324.999939,115.666595 324.999969,172.999939 
	C283.833344,173.000000 242.666672,173.000000 201.000000,173.000000 
M261.500000,167.955307 
	C277.278809,167.955307 293.057617,167.955307 308.965973,167.955307 
	C308.965973,165.975647 308.965973,164.582733 308.965973,162.729858 
	C264.769043,162.729858 220.845062,162.729858 176.734009,162.729858 
	C176.734009,160.323822 176.734009,158.381454 176.734009,156.009521 
	C212.518753,156.009521 248.118195,156.009521 283.779724,156.009521 
	C283.779724,154.184708 283.779724,152.793259 283.779724,150.998810 
	C247.897903,150.998810 212.292694,150.998810 176.585983,150.998810 
	C176.585983,131.822906 176.585983,113.055641 176.585983,93.662910 
	C186.301041,98.260254 195.533722,102.758911 204.873535,107.022934 
	C226.316391,116.812500 247.804306,126.503578 269.292633,136.193176 
	C272.723572,137.740265 272.768341,137.640976 274.498535,134.892380 
	C272.866913,134.054611 271.271851,133.189392 269.638489,132.403854 
	C239.982910,118.141586 210.321121,103.892250 180.665115,89.630844 
	C175.682755,87.234856 175.286957,86.093781 177.505676,80.060112 
	C187.989685,85.085617 198.360428,90.268974 208.906677,95.066551 
	C228.872253,104.149040 248.925522,113.039635 268.992279,121.896828 
	C270.333954,122.489014 272.095032,122.131027 273.661041,122.214966 
	C273.711090,121.665985 273.761108,121.116997 273.811157,120.568008 
	C272.199982,119.745811 270.605896,118.888008 268.975159,118.106682 
	C239.279510,103.878571 209.600845,89.614479 179.845612,75.511971 
	C177.016907,74.171310 175.937790,72.684944 176.020889,69.541573 
	C176.244522,61.081638 176.097305,52.611900 176.097305,44.308258 
	C171.939713,43.071754 170.345627,44.184814 170.458237,48.188263 
	C170.662491,55.450214 170.516144,62.722027 170.516144,70.961273 
	C165.189743,68.397331 160.823074,66.065514 156.269073,64.188103 
	C153.466522,63.032734 152.833893,61.311432 152.859268,58.492516 
	C152.988281,44.160698 152.918610,29.827099 152.918518,15.494123 
	C152.918503,12.890955 152.918533,10.287788 152.918533,7.699754 
	C148.857529,6.681149 146.877380,7.351358 147.125076,11.519241 
	C147.352097,15.338983 147.173096,19.182852 147.173080,23.016088 
	C147.173050,34.957779 147.173065,46.899467 147.173065,59.498055 
	C145.082581,58.565666 143.598862,57.945675 142.150726,57.251400 
	C130.443680,51.638668 118.781502,45.929474 106.998451,40.481487 
	C105.296234,39.694454 102.641106,39.363155 101.071457,40.133766 
	C74.623375,53.118298 48.268791,66.293701 21.938551,79.516541 
	C20.782635,80.097031 19.307032,81.499168 19.256388,82.578453 
	C18.988937,88.278191 19.130953,93.997124 19.130953,100.554375 
	C25.692863,97.385292 31.313511,94.670799 37.628723,91.620865 
	C37.628723,117.435837 37.628723,142.526321 37.628723,167.955292 
	C112.262985,167.955292 186.381500,167.955292 261.500000,167.955307 
z"/>
<path fill="#2B2829" opacity="1.000000" stroke="none" 
	d="
M261.000000,167.955292 
	C186.381500,167.955292 112.262985,167.955292 37.628723,167.955292 
	C37.628723,142.526321 37.628723,117.435837 37.628723,91.620865 
	C31.313511,94.670799 25.692863,97.385292 19.130953,100.554375 
	C19.130953,93.997124 18.988937,88.278191 19.256388,82.578453 
	C19.307032,81.499168 20.782635,80.097031 21.938551,79.516541 
	C48.268791,66.293701 74.623375,53.118298 101.071457,40.133766 
	C102.641106,39.363155 105.296234,39.694454 106.998451,40.481487 
	C118.781502,45.929474 130.443680,51.638668 142.150726,57.251400 
	C143.598862,57.945675 145.082581,58.565666 147.173065,59.498055 
	C147.173065,46.899467 147.173050,34.957779 147.173080,23.016088 
	C147.173096,19.182852 147.352097,15.338983 147.125076,11.519241 
	C146.877380,7.351358 148.857529,6.681149 152.918533,7.699754 
	C152.918533,10.287788 152.918503,12.890955 152.918518,15.494123 
	C152.918610,29.827099 152.988281,44.160698 152.859268,58.492516 
	C152.833893,61.311432 153.466522,63.032734 156.269073,64.188103 
	C160.823074,66.065514 165.189743,68.397331 170.516144,70.961273 
	C170.516144,62.722027 170.662491,55.450214 170.458237,48.188263 
	C170.345627,44.184814 171.939713,43.071754 176.097305,44.308258 
	C176.097305,52.611900 176.244522,61.081638 176.020889,69.541573 
	C175.937790,72.684944 177.016907,74.171310 179.845612,75.511971 
	C209.600845,89.614479 239.279510,103.878571 268.975159,118.106682 
	C270.605896,118.888008 272.199982,119.745811 273.811157,120.568008 
	C273.761108,121.116997 273.711090,121.665985 273.661041,122.214966 
	C272.095032,122.131027 270.333954,122.489014 268.992279,121.896828 
	C248.925522,113.039635 228.872253,104.149040 208.906677,95.066551 
	C198.360428,90.268974 187.989685,85.085617 177.505676,80.060112 
	C175.286957,86.093781 175.682755,87.234856 180.665115,89.630844 
	C210.321121,103.892250 239.982910,118.141586 269.638489,132.403854 
	C271.271851,133.189392 272.866913,134.054611 274.498535,134.892380 
	C272.768341,137.640976 272.723572,137.740265 269.292633,136.193176 
	C247.804306,126.503578 226.316391,116.812500 204.873535,107.022934 
	C195.533722,102.758911 186.301041,98.260254 176.585983,93.662910 
	C176.585983,113.055641 176.585983,131.822906 176.585983,150.998810 
	C212.292694,150.998810 247.897903,150.998810 283.779724,150.998810 
	C283.779724,152.793259 283.779724,154.184708 283.779724,156.009521 
	C248.118195,156.009521 212.518753,156.009521 176.734009,156.009521 
	C176.734009,158.381454 176.734009,160.323822 176.734009,162.729858 
	C220.845062,162.729858 264.769043,162.729858 308.965973,162.729858 
	C308.965973,164.582733 308.965973,165.975647 308.965973,167.955307 
	C293.057617,167.955307 277.278809,167.955307 261.000000,167.955292 
M108.306992,61.106735 
	C104.939041,58.759239 101.866776,59.212940 98.226242,61.113758 
	C85.980377,67.507660 73.567276,73.588615 61.114471,79.573563 
	C58.065468,81.038948 56.701336,82.641823 56.738949,86.267235 
	C56.946293,106.251587 56.832630,126.239220 56.852543,146.225693 
	C56.853973,147.661224 57.042618,149.096558 57.147648,150.580536 
	C68.921242,150.580536 80.323715,150.580536 92.202728,150.580536 
	C92.202728,140.697433 92.202728,131.111069 92.202728,121.273605 
	C100.764389,121.273605 108.848640,121.273605 117.558655,121.273605 
	C117.558655,130.876190 117.558655,140.421188 117.558655,150.082428 
	C127.614143,150.082428 137.046158,150.082428 146.398285,150.082428 
	C146.628922,149.615860 146.896225,149.327271 146.896698,149.038254 
	C146.932800,126.720505 147.006836,104.402237 146.824539,82.086082 
	C146.813095,80.684006 145.079666,78.701935 143.650879,77.999428 
	C132.160034,72.349533 120.549896,66.942276 108.306992,61.106735 
M170.300003,95.703156 
	C169.830978,93.758850 169.988205,90.789017 168.781754,90.052269 
	C164.181503,87.242996 159.141602,85.153671 153.841492,82.590088 
	C153.841492,105.667168 153.841492,128.028809 153.841492,150.633575 
	C159.344879,150.633575 164.572968,150.633575 170.300049,150.633575 
	C170.300049,132.472839 170.300049,114.562881 170.300003,95.703156 
M114.402588,58.033932 
	C125.088486,63.074844 135.774384,68.115761 146.742233,73.289680 
	C147.198425,65.908936 147.196060,65.913811 141.474854,63.143379 
	C132.062988,58.585793 122.659279,54.011322 113.241905,49.465160 
	C110.170547,47.982487 107.067284,46.565880 103.900963,45.082684 
	C102.435104,50.237507 103.027023,53.747211 108.349083,55.186920 
	C110.227715,55.695126 111.914818,56.911362 114.402588,58.033932 
M146.974075,157.669296 
	C146.445694,157.169830 145.922241,156.241165 145.388184,156.235001 
	C136.757843,156.135651 128.121750,156.022446 119.500443,156.312881 
	C118.438629,156.348663 117.454185,158.680969 115.802650,160.733597 
	C127.190552,161.553391 136.863022,162.249695 146.994507,162.979034 
	C146.994507,161.150467 146.994507,159.863205 146.974075,157.669296 
M158.960037,71.534843 
	C157.096680,70.678833 155.233337,69.822815 152.274078,68.463356 
	C152.993530,72.134766 152.648788,75.922394 154.117065,76.854698 
	C159.020889,79.968475 164.573898,82.059860 169.875015,84.541428 
	C171.689194,78.863251 170.043533,75.783485 165.107300,74.316132 
	C163.214523,73.753479 161.474167,72.678146 158.960037,71.534843 
M158.604294,162.900604 
	C162.390869,162.900604 166.177444,162.900604 170.121246,162.900604 
	C170.121246,160.410950 170.121246,158.370621 170.121246,156.419601 
	C164.276901,156.419601 158.837646,156.419601 153.136078,156.419601 
	C153.136078,158.603241 153.136078,160.513626 153.136078,162.695404 
	C154.724197,162.767578 156.187653,162.834076 158.604294,162.900604 
z"/>
<path fill="#FDFDFD" opacity="1.000000" stroke="none" 
	d="
M108.641602,61.283794 
	C120.549896,66.942276 132.160034,72.349533 143.650879,77.999428 
	C145.079666,78.701935 146.813095,80.684006 146.824539,82.086082 
	C147.006836,104.402237 146.932800,126.720505 146.896698,149.038254 
	C146.896225,149.327271 146.628922,149.615860 146.398285,150.082428 
	C137.046158,150.082428 127.614143,150.082428 117.558655,150.082428 
	C117.558655,140.421188 117.558655,130.876190 117.558655,121.273605 
	C108.848640,121.273605 100.764389,121.273605 92.202728,121.273605 
	C92.202728,131.111069 92.202728,140.697433 92.202728,150.580536 
	C80.323715,150.580536 68.921242,150.580536 57.147648,150.580536 
	C57.042618,149.096558 56.853973,147.661224 56.852543,146.225693 
	C56.832630,126.239220 56.946293,106.251587 56.738949,86.267235 
	C56.701336,82.641823 58.065468,81.038948 61.114471,79.573563 
	C73.567276,73.588615 85.980377,67.507660 98.226242,61.113758 
	C101.866776,59.212940 104.939041,58.759239 108.641602,61.283794 
z"/>
<path fill="#FEFEFE" opacity="1.000000" stroke="none" 
	d="
M170.300018,96.178040 
	C170.300049,114.562881 170.300049,132.472839 170.300049,150.633575 
	C164.572968,150.633575 159.344879,150.633575 153.841492,150.633575 
	C153.841492,128.028809 153.841492,105.667168 153.841492,82.590088 
	C159.141602,85.153671 164.181503,87.242996 168.781754,90.052269 
	C169.988205,90.789017 169.830978,93.758850 170.300018,96.178040 
z"/>
<path fill="#F2F1F2" opacity="1.000000" stroke="none" 
	d="
M114.045975,57.919132 
	C111.914818,56.911362 110.227715,55.695126 108.349083,55.186920 
	C103.027023,53.747211 102.435104,50.237507 103.900963,45.082684 
	C107.067284,46.565880 110.170547,47.982487 113.241905,49.465160 
	C122.659279,54.011322 132.062988,58.585793 141.474854,63.143379 
	C147.196060,65.913811 147.198425,65.908936 146.742233,73.289680 
	C135.774384,68.115761 125.088486,63.074844 114.045975,57.919132 
z"/>
<path fill="#EEEDED" opacity="1.000000" stroke="none" 
	d="
M146.984283,158.122620 
	C146.994507,159.863205 146.994507,161.150467 146.994507,162.979034 
	C136.863022,162.249695 127.190552,161.553391 115.802650,160.733597 
	C117.454185,158.680969 118.438629,156.348663 119.500443,156.312881 
	C128.121750,156.022446 136.757843,156.135651 145.388184,156.235001 
	C145.922241,156.241165 146.445694,157.169830 146.984283,158.122620 
z"/>
<path fill="#F2F2F2" opacity="1.000000" stroke="none" 
	d="
M159.312195,71.685638 
	C161.474167,72.678146 163.214523,73.753479 165.107300,74.316132 
	C170.043533,75.783485 171.689194,78.863251 169.875015,84.541428 
	C164.573898,82.059860 159.020889,79.968475 154.117065,76.854698 
	C152.648788,75.922394 152.993530,72.134766 152.274078,68.463356 
	C155.233337,69.822815 157.096680,70.678833 159.312195,71.685638 
z"/>
<path fill="#EFEFEF" opacity="1.000000" stroke="none" 
	d="
M158.127701,162.900589 
	C156.187653,162.834076 154.724197,162.767578 153.136078,162.695404 
	C153.136078,160.513626 153.136078,158.603241 153.136078,156.419601 
	C158.837646,156.419601 164.276901,156.419601 170.121246,156.419601 
	C170.121246,158.370621 170.121246,160.410950 170.121246,162.900604 
	C166.177444,162.900604 162.390869,162.900604 158.127701,162.900589 
z"/>
</svg>